inDegrees=no
num_controls=7
num_derivatives=13
num_iterations=127
num_multipliers=7
num_parameters=0
num_slacks=7
num_states=26
objective=0.427673
objective_accelerations=0.054644
objective_balance=0.007009
objective_effort=0.033298
objective_height=0.331670
objective_ligament=0.001053
solver_duration=1600.088042
status=Solve_Succeeded
success=true
DataType=double
version=3
OpenSimVersion=4.5
endheader
time	/jointset/ground_pelvis/pelvis_tilt/value	/jointset/ground_pelvis/pelvis_tx/value	/jointset/ground_pelvis/pelvis_ty/value	/jointset/hip_l/hip_flexion_l/value	/jointset/hip_l/hip_adduction_l/value	/jointset/hip_l/hip_rotation_l/value	/jointset/back/lumbar_extension/value	/jointset/patellofemoral_l/patellar_flexion_l/value	/jointset/knee_l/knee_flexion_l/value	/jointset/knee_l/knee_adduction_l/value	/jointset/knee_l/knee_rotation_l/value	/jointset/ankle_l/ankle_angle_l/value	/jointset/subtalar_l/subtalar_angle_l/value	/jointset/ground_pelvis/pelvis_tilt/speed	/jointset/ground_pelvis/pelvis_tx/speed	/jointset/ground_pelvis/pelvis_ty/speed	/jointset/hip_l/hip_flexion_l/speed	/jointset/hip_l/hip_adduction_l/speed	/jointset/hip_l/hip_rotation_l/speed	/jointset/back/lumbar_extension/speed	/jointset/patellofemoral_l/patellar_flexion_l/speed	/jointset/knee_l/knee_flexion_l/speed	/jointset/knee_l/knee_adduction_l/speed	/jointset/knee_l/knee_rotation_l/speed	/jointset/ankle_l/ankle_angle_l/speed	/jointset/subtalar_l/subtalar_angle_l/speed	/forceset/tau_hip_flexion_l	/forceset/tau_hip_adduction_l	/forceset/tau_hip_rotation_l	/forceset/tau_knee_flexion_l	/forceset/tau_ankle_angle_l	/forceset/tau_subtalar_angle_l	/forceset/tau_lumbar_extension	lambda_cid13_p0	lambda_cid13_p1	lambda_cid13_p2	lambda_cid13_p3	lambda_cid13_p4	lambda_cid13_p5	lambda_cid14_p0	/jointset/ground_pelvis/pelvis_tilt/accel	/jointset/ground_pelvis/pelvis_tx/accel	/jointset/ground_pelvis/pelvis_ty/accel	/jointset/hip_l/hip_flexion_l/accel	/jointset/hip_l/hip_adduction_l/accel	/jointset/hip_l/hip_rotation_l/accel	/jointset/back/lumbar_extension/accel	/jointset/patellofemoral_l/patellar_flexion_l/accel	/jointset/knee_l/knee_flexion_l/accel	/jointset/knee_l/knee_adduction_l/accel	/jointset/knee_l/knee_rotation_l/accel	/jointset/ankle_l/ankle_angle_l/accel	/jointset/subtalar_l/subtalar_angle_l/accel	gamma_cid13_p0	gamma_cid13_p1	gamma_cid13_p2	gamma_cid13_p3	gamma_cid13_p4	gamma_cid13_p5	gamma_cid14_p0
0.5	-0.3424675117164968	-0.03673433591049677	0.7517192407954947	1.224818623547696	-0.3035109764040301	0.03169222549031792	-0.3292465619529474	0.8727924489122837	0.8727924489124532	-0.1733721845537505	0.1653423770172878	0.1757495980791594	-0.01588909508327177	-0.4492354535523309	-0.1685148561493091	-0.5697347526551431	2.278957561507275	0.03258623473015125	0.7527065253719227	-0.6229376032879735	2.261745353351585	2.261745353351584	-0.00904863680709324	0.04715310740084648	0.5637634697990503	0.1302261466863024	-0.19345345538776	0.01985762969020255	-0.02627058266171148	-0.2673412770629974	0.107561155121171	0.03381655617854407	0.1911437822301667	-3.483132957078792	-16.21863272248851	4.629923835294491	-3.425898683202643	-602.896671656595	-55.53208388209568	-16.98298077686471	0.5864493901945809	0.6355825864198236	-0.4792515719579836	-1.427729068463218	0.7559162761353174	-0.3944998367691527	1.763637067121976	-1.488064194351327	-1.488064194351352	0.07127710193465245	-0.07041732402181758	-0.6985261917300323	0.801445010183319	-4.592077171005932e-07	-2.41704031818655e-07	3.158294248004355e-06	3.840531662695132e-07	-5.807841477622815e-07	-1.157681603199698e-08	-4.678969065072996e-07
0.51	-0.3469296042671604	-0.03838753030860304	0.7459991714834922	1.247533137372663	-0.303148892368405	0.03920130142040466	-0.3353875212609251	0.8953318116734181	0.8953318116735384	-0.1734631342917115	0.1658097856049173	0.1813508684806024	-0.01454860211677961	-0.4431287961500607	-0.1621125478409792	-0.5741548278698981	2.263649955583352	0.03979821574723352	0.7490170623524939	-0.6051909752877128	2.245822661742734	2.245822661742626	-0.009130270397102271	0.04632855161916396	0.5563952901185477	0.1378426108506888	-0.1998675674479915	0.01992704237779285	-0.0262609877289961	-0.2706800153824465	0.1063541707455442	0.03374031192939791	0.1965213706610281	-4.141035586871391	-15.94961718588208	4.449155824317519	-3.177293789912611	-607.8171045600737	-55.2745057687337	-15.57868957572869	0.6308810600077243	0.6443534469831893	-0.4048562801919882	-1.626610284679736	0.6985424913177207	-0.3703042083704152	1.789668119451978	-1.689961174225784	-1.689961174241937	-0.04617259664969393	-0.08910351461962084	-0.7702267913826518	0.7369341814593412	-4.236095922000603e-07	-1.208250426767463e-07	3.040844313520477e-06	3.826084405094224e-07	-5.467665642990433e-07	9.99373420203646e-08	-4.402554681633677e-07
0.52	-0.3513290088148482	-0.03997634192483727	0.7402386072625503	1.270085708352325	-0.3027157478272447	0.04667065578552951	-0.3413491157983055	0.9177028296124496	0.9177028296125188	-0.1735545581670084	0.1662688228728554	0.1868756044982059	-0.01313290709626497	-0.436697852957211	-0.1556382997749027	-0.5778337344429695	2.246568992446512	0.0467983358372374	0.744762212379438	-0.5870646491684981	2.228076388930931	2.228076388930714	-0.009143464274351714	0.04547884346235492	0.5484565930311542	0.1452665574907973	-0.206281679508223	0.01999645506538433	-0.02625139279627077	-0.274018753701897	0.1051471863699177	0.03366406768025318	0.2018989590918895	-4.803811959987343	-15.68073157911414	4.269534150375533	-2.947109472714174	-612.8344199843744	-55.10409099832907	-14.18295328865574	0.6513065483104709	0.6499705379691613	-0.3310178436212543	-1.782400511046753	0.7135440907196396	-0.5075772274945864	1.839576690912791	-1.852780434941774	-1.852780434941759	0.08496504448656823	-0.07544779904711992	-0.8126296731081816	0.7629415053277473	-3.848769491980136e-07	-7.21306545729101e-09	2.901004387116703e-06	3.762684236388815e-07	-5.092680830594715e-07	2.039289576840453e-07	-4.10063182756253e-07
0.53	-0.3556626192855159	-0.04150012553224373	0.7344449944617649	1.292458882768282	-0.3022135201886379	0.05409467596317284	-0.3471276390024484	0.9398874879835745	0.939887487983657	-0.1736454603482214	0.1667191529747886	0.1923182640281224	-0.01164377825436367	-0.4299767512512787	-0.14911320571187	-0.5807604923343535	2.227781790877744	0.05360783363789604	0.7399552092375642	-0.5685917887060028	2.208561794803104	2.208561794803013	-0.009030205311238871	0.04458670137224522	0.5399884863069917	0.1525200869829667	-0.2125386381996276	0.01991604054183974	-0.02616224641789016	-0.2774529053929909	0.1040256982807145	0.0334381367955634	0.2071174528480891	-5.444445967400876	-15.34159986605682	4.068300359427464	-2.678787638048925	-617.8387491750013	-54.85478632877509	-12.79936383302882	0.6896126440056352	0.6546358273233688	-0.2543526693105402	-1.969530971606817	0.6583290560586935	-0.4805862926516712	1.858371167025822	-2.044743634431568	-2.044743634412836	-0.02441290314673711	-0.09673657963177264	-0.8768828907226823	0.7003486527445805	-3.459529410747503e-07	8.447574681710447e-08	2.745587790278017e-06	3.649850609812321e-07	-4.710654793227473e-07	2.91325327837906e-07	-3.796431162502435e-07
0.54	-0.3599275986066699	-0.04295848680164924	0.7286259445005828	1.314635654970189	-0.3016444622857608	0.06146796122237373	-0.3527199875133448	0.9618682114668755	0.9618682114669717	-0.1737350137848784	0.1671604338226942	0.1976736461470668	-0.01008335612122408	-0.4229716230545053	-0.1425538321747132	-0.5829211665222863	2.207288549636372	0.06016438869134397	0.7346152286909737	-0.5498297105191908	2.187289411366141	2.187289411366174	-0.008873715362941462	0.04366899265657984	0.5310011108367335	0.1595252157384579	-0.2187955968910334	0.01983562601829405	-0.02607310003948252	-0.2808870570840882	0.1029042101915107	0.03321220591087216	0.2123359466042881	-6.089931203815033	-15.00156294103037	3.866860834753991	-2.428294305282367	-622.9360726900442	-54.68259063299258	-11.43107731883202	0.7081118464786816	0.6568264327940054	-0.1778011029310008	-2.123608445567841	0.662955541277499	-0.6141727084379627	1.897420235776091	-2.204338296768936	-2.204338296768936	0.09361124152348026	-0.08056112415825205	-0.9164834223273204	0.7132613579921037	-3.068172098386517e-07	1.519091425565399e-07	2.572937430404962e-06	3.482324646867818e-07	-4.320838464402373e-07	3.603610008319658e-07	-3.489710366135419e-07
0.55	-0.3641212186509021	-0.04435114764439795	0.7227891418163059	1.336599214679961	-0.3010109068958837	0.06878515335300131	-0.3581233061434487	0.9836276693640924	0.983627669364164	-0.173822347284805	0.1675922946070663	0.2029367624431142	-0.008453896209072557	-0.4157099956376644	-0.1359785902665027	-0.584308123099191	2.185149287075746	0.06650727335068651	0.7287483590705672	-0.5307950457140971	2.164321877106707	2.164321877106837	-0.008585409853353633	0.04269015207781727	0.5215483885718065	0.1663269212193402	-0.2249535306500642	0.01956502779836218	-0.02589545739017945	-0.2843016265217533	0.101714715594926	0.03295387454831309	0.2174373708363705	-6.757258789203143	-14.64011736220808	3.65799366352734	-2.11948428087565	-627.9895006535178	-54.5242254600794	-10.0806907925396	0.7415319212102827	0.6579028050614485	-0.09953801420746752	-2.300227023293502	0.613664117012818	-0.5844421235592406	1.912335070994111	-2.384938187954196	-2.384938187939765	-0.002358939947394063	-0.1089997274409833	-0.9706852337279012	0.6573257157594277	-2.931367660568545e-07	8.475023187555849e-08	2.491655012411813e-06	3.375275161625896e-07	-4.273828457616169e-07	3.797060351021704e-07	-3.436614038389124e-07
0.5600000000000001	-0.3682409536745813	-0.04567805012101916	0.7169423905504324	1.358333153391731	-0.3003151808216634	0.07604137718048137	-0.363335109031878	1.00514905647923	1.005149056479278	-0.1739065575587616	0.1680138761451103	0.2081031477954818	-0.006757679127587581	-0.4081946189438839	-0.1294021589492152	-0.5849108828415902	2.161364350035779	0.07259852556003685	0.7224215680614701	-0.5115265621842797	2.139675254950328	2.139675254950554	-0.008249070168719067	0.04161314339082532	0.5116549221007792	0.1728766496051481	-0.231111464409096	0.01929442957842976	-0.02571781474085882	-0.2877161959594203	0.100525220998341	0.03269554318575327	0.2225387950684521	-7.429704399048387	-14.27717773731247	3.448207391398563	-1.826153206570462	-633.1356326400729	-54.43440719095842	-8.750355426498203	0.7588617018665869	0.6570643146094421	-0.02096173602986503	-2.452743341436074	0.6126290512790572	-0.7061569861761247	1.944183980720841	-2.540155876158048	-2.540155876158072	0.1032180765328274	-0.1001947458041244	-1.004632263547346	0.6628659389772181	-3.10002667220218e-07	-1.439194465099179e-07	2.520014124674547e-06	3.340797449627071e-07	-4.638186037276627e-07	3.394223029037506e-07	-3.687867072987685e-07
0.5700000000000001	-0.3722843852154621	-0.04693925502886418	0.711093566636348	1.379821108532026	-0.2995600964088483	0.08323173230146177	-0.3683532796046224	1.026415596758107	1.026415596758086	-0.1739874325501532	0.1684248418350826	0.2131683411487655	-0.004997648758044667	-0.4004581153472567	-0.1228447060270971	-0.5847218001834269	2.135967692974438	0.07837562985180352	0.7155695034096093	-0.4920878458605749	2.113368038914507	2.11336803891462	-0.007911027872239865	0.0405720141857479	0.5013217206934824	0.1790834959795577	-0.2369461411535335	0.0190194540562133	-0.02547807719419854	-0.2913053403076689	0.09957138247565059	0.03217727348621922	0.2273417258400828	-8.029276714658458	-13.79810689568082	3.201629260501132	-1.519976738906724	-638.156258645916	-54.16410145388471	-7.465451427795693	0.7860645565756545	0.6542696958252142	0.05856134977658044	-2.622003526247568	0.5534859223135721	-0.687056410287712	1.946671433795512	-2.715642154077741	-2.715642154094654	0.001310609732251262	-0.1077901772732069	-1.056937459016013	0.5924487554312647	-3.079702203780606e-07	-2.406796496725093e-07	2.494042570046626e-06	3.299755438126582e-07	-4.728653442758154e-07	3.458539403421475e-07	-3.742079169906358e-07
